<svg id="Layer_x0020_1" xmlns="http://www.w3.org/2000/svg" xmlns:xlink="http://www.w3.org/1999/xlink" width="3" height="3" viewBox="0 0 3 3">
<defs>
<clipPath id="clip-path">
<path id="Path_70" data-name="Path 70" d="M1.5,0A1.5,1.5,0,1,1,0,1.5,1.5,1.5,0,0,1,1.5,0Z" clip-rule="evenodd"></path>
</clipPath>
</defs>
<path id="Path_69" data-name="Path 69" d="M1.5,0A1.5,1.5,0,1,1,0,1.5,1.5,1.5,0,0,1,1.5,0Z" fill="#f38f41" fill-rule="evenodd"></path>
<g id="Group_18" data-name="Group 18" clip-path="url(#clip-path)">
<g id="_256238720">
<g id="Group_17" data-name="Group 17">
<path id="_4421034001" d="M1.785.658,5.571,4.444l0,.006,0,.006,0,.007v.008L1.8.685V.677l0-.007,0-.006Z" fill="#f57435" fill-rule="evenodd"></path>
<path id="_442103520" d="M1.8.685,5.582,4.471v.3L1.8.981Z" fill="#f57435" fill-rule="evenodd"></path>
<path id="_442104504" d="M1.8.981,5.582,4.767v.015l0,0,0,0,0,0,0,0L1.785,1.007l0,0,0,0,0,0,0,0V.984Z" fill="#f57435" fill-rule="evenodd"></path>
<path id="_442104192" d="M1.785,1.007,5.571,4.794h0L1.785,1.007Z" fill="#f57435" fill-rule="evenodd"></path>
<path id="_442104744" d="M1.785,1.007,5.571,4.794h0L1.782,1.01h0Z" fill="#f57435" fill-rule="evenodd"></path>
<path id="_442104552" d="M1.782,1.01,5.568,4.8l0,0,0,0H5.544L1.758,1.018h.016l0,0,0,0Z" fill="#f57435" fill-rule="evenodd"></path>
<path id="_442104768" d="M1.171.806,4.957,4.592v.175L1.171.981Z" fill="#f57435" fill-rule="evenodd"></path>
<path id="_442104456" d="M1.242,1.018,5.028,4.8H5.014l0,0,0,0,0,0,0,0L1.215,1.007l0,0,0,0,0,0,0,0h.011Z" fill="#f57435" fill-rule="evenodd"></path>
<path id="_442104696" d="M1.215,1.007,5,4.794H5L1.215,1.007Z" fill="#f57435" fill-rule="evenodd"></path>
<path id="_442104216" d="M1.758,1.018,5.544,4.8H5.028L1.242,1.018Z" fill="#f57435" fill-rule="evenodd"></path>
<path id="_442104096" d="M1.171.981,4.957,4.767V4.8l0,0,0,0,0,0,0,0L1.187,1.025l0,0,0,0,0,0,0,0V.984Z" fill="#f57435" fill-rule="evenodd"></path>
<path id="_442105152" d="M1.187,1.025,4.973,4.812h0L1.19,1.03h0Z" fill="#f57435" fill-rule="evenodd"></path>
<path id="_442105392" d="M2.093.814,5.879,4.6l0,0,0,0,0,.005v.005L2.1.833V.827l0-.005,0,0Z" fill="#f57435" fill-rule="evenodd"></path>
<path id="_442105440" d="M2.1.833,5.887,4.619V6.113L2.1,2.327Z" fill="#f57435" fill-rule="evenodd"></path>
<path id="_442105128" d="M2.1,2.327,5.887,6.113v.005l0,.005,0,0,0,0,0,0,0,0-.005,0H5.86L2.074,2.353h.005l.005,0,0,0,0,0,0,0,0,0,0-.005Z" fill="#f57435" fill-rule="evenodd"></path>
<path id="_442105488" d="M2.074,2.353,5.86,6.14H4.713L.926,2.353Z" fill="#f57435" fill-rule="evenodd"></path>
<path id="_442105512" d="M.926,2.353,4.713,6.14H4.707l-.005,0,0,0,0,0L.907,2.346l0,0,0,0,.005,0Z" fill="#f57435" fill-rule="evenodd"></path>
</g>
<path id="_256238984" d="M1.242.647h.516A.038.038,0,0,1,1.8.685v.3a.038.038,0,0,1-.011.027h0l0,0a.038.038,0,0,1-.024.009H1.242a.038.038,0,0,1-.027-.011h0l0,0A.038.038,0,0,1,1.2.981v-.3A.038.038,0,0,1,1.242.647ZM.949.806h.222V.981a.072.072,0,0,0,.016.045l0,.006.013.013h0a.071.071,0,0,0,.034.009h.516A.072.072,0,0,0,1.8,1.036l.006,0,.013-.013v0A.071.071,0,0,0,1.829.981V.806h.244A.027.027,0,0,1,2.1.833V2.327a.027.027,0,0,1-.027.027H.926A.027.027,0,0,1,.9,2.327V.855A.049.049,0,0,1,.949.806Z" fill="#f57435" fill-rule="evenodd"></path>
</g>
</g>
<path id="Path_71" data-name="Path 71" d="M1.5,0A1.5,1.5,0,1,1,0,1.5,1.5,1.5,0,0,1,1.5,0Z" fill="none" fill-rule="evenodd"></path>
<path id="Path_72" data-name="Path 72" d="M.949.806h.222V.981a.072.072,0,0,0,.016.045l0,.006.013.013h0a.071.071,0,0,0,.034.009h.516A.072.072,0,0,0,1.8,1.036l.006,0,.013-.013v0A.071.071,0,0,0,1.829.981V.806h.244A.027.027,0,0,1,2.1.833V2.327a.027.027,0,0,1-.027.027H.926A.027.027,0,0,1,.9,2.327V.855A.049.049,0,0,1,.949.806Zm.945.472a.027.027,0,0,0,0-.053H1.4a.027.027,0,0,0,0,.053Zm0,.4a.027.027,0,0,0,0-.053H1.4a.027.027,0,1,0,0,.053Zm0,.4a.027.027,0,0,0,0-.053H1.4a.027.027,0,1,0,0,.053Zm-.768-.836a.027.027,0,0,0-.038.038l.05.05h0a.027.027,0,0,0,.038,0h0L1.307,1.2a.027.027,0,1,0-.038-.038l-.112.112-.031-.031Zm0,.4a.027.027,0,0,0-.038.038l.05.05h0a.027.027,0,0,0,.038,0h0l.131-.131a.027.027,0,0,0-.038-.038l-.112.112L1.125,1.65Zm0,.4a.027.027,0,1,0-.038.038l.05.05h0a.027.027,0,0,0,.038,0h0l.131-.131a.027.027,0,0,0-.038-.038l-.112.112-.031-.031Z" fill="#fffffe"></path>
<path id="Path_73" data-name="Path 73" d="M1.242.647h.516A.038.038,0,0,1,1.8.685v.3a.038.038,0,0,1-.011.027h0l0,0a.038.038,0,0,1-.024.009H1.242a.038.038,0,0,1-.027-.011h0l0,0A.038.038,0,0,1,1.2.981v-.3A.038.038,0,0,1,1.242.647Z" fill="#fffffe"></path>
</svg>